<?xml version="1.0" encoding="iso-8859-1"?>
<!-- Generator: Adobe Illustrator 21.1.0, SVG Export Plug-In . SVG Version: 6.00 Build 0)  -->
<svg version="1.1" id="Layer_1" xmlns="http://www.w3.org/2000/svg" xmlns:xlink="http://www.w3.org/1999/xlink" x="0px" y="0px"
	 viewBox="0 0 100.353 100.352" style="enable-background:new 0 0 100.353 100.352;" xml:space="preserve">
<g>
	<path stroke="#5E3B76" d="M48.186,57.009c0.277,0.362,0.705,0.578,1.161,0.588c0.01,0,0.02,0,0.03,0c0.445,0,0.868-0.197,1.153-0.54l15.308-18.39
		c0.042-0.049,0.079-0.101,0.114-0.155c0.979-1.544,1.498-3.304,1.498-5.09c0-5.223-4.249-9.472-9.473-9.472c0,0-0.001,0-0.002,0
		c-2.529,0-4.908,0.985-6.699,2.774c-0.487,0.487-0.915,1.018-1.279,1.583c-1.687-2.619-4.629-4.357-7.97-4.357
		c-5.226,0-9.477,4.249-9.477,9.472c0,2.018,0.649,3.962,1.892,5.643L48.186,57.009z M42.028,26.95c3.569,0,6.472,2.903,6.472,6.472
		c0,0.829,0.671,1.5,1.5,1.5s1.5-0.671,1.5-1.5c0-1.728,0.674-3.353,1.897-4.576s2.85-1.896,4.578-1.896c0.001,0,0.002,0,0.002,0
		c3.569,0,6.473,2.903,6.473,6.472c0,1.186-0.34,2.361-0.982,3.404L49.426,53.694L36.84,37.261
		c-0.843-1.141-1.289-2.468-1.289-3.839C35.551,29.853,38.457,26.95,42.028,26.95z"/>
	<path stroke="#5E3B76" d="M84.567,88.733c0.047-0.145,0.079-0.298,0.079-0.459V45.947c0-0.006-0.002-0.012-0.002-0.019
		c-0.001-0.061-0.01-0.122-0.018-0.182c-0.005-0.038-0.006-0.076-0.014-0.113c-0.01-0.049-0.029-0.095-0.044-0.143
		c-0.001-0.002-0.001-0.004-0.002-0.005c-0.007-0.02-0.011-0.04-0.019-0.06c-0.009-0.024-0.015-0.049-0.025-0.072
		c-0.015-0.035-0.038-0.068-0.056-0.103c-0.028-0.053-0.055-0.107-0.089-0.156c-0.004-0.005-0.006-0.011-0.009-0.016l-6.845-9.602
		V11.723c0-0.829-0.672-1.5-1.5-1.5H23.978c-0.829,0-1.5,0.671-1.5,1.5v23.768l-6.845,9.584c-0.004,0.005-0.005,0.01-0.009,0.015
		c-0.036,0.052-0.065,0.108-0.094,0.165c-0.017,0.032-0.037,0.062-0.052,0.095c-0.01,0.024-0.017,0.049-0.026,0.074
		c-0.007,0.02-0.012,0.039-0.018,0.06c-0.001,0.003-0.002,0.005-0.002,0.008c-0.015,0.047-0.033,0.093-0.044,0.141
		c-0.008,0.036-0.009,0.074-0.014,0.111c-0.008,0.062-0.018,0.123-0.019,0.185c0,0.006-0.002,0.012-0.002,0.019v42.328
		c0,0.164,0.033,0.32,0.082,0.468c0.007,0.02,0.011,0.039,0.018,0.059c0.065,0.172,0.161,0.327,0.28,0.462
		c0.007,0.008,0.009,0.018,0.016,0.026c0.006,0.007,0.014,0.011,0.021,0.018c0.049,0.051,0.103,0.096,0.159,0.14
		c0.025,0.019,0.047,0.042,0.073,0.06c0.066,0.046,0.137,0.083,0.21,0.117c0.018,0.008,0.034,0.021,0.052,0.028
		c0.181,0.077,0.38,0.121,0.589,0.121h66.292c0.209,0,0.408-0.043,0.589-0.121c0.028-0.012,0.054-0.03,0.081-0.044
		c0.062-0.031,0.124-0.063,0.181-0.102c0.03-0.021,0.057-0.048,0.086-0.071c0.051-0.041,0.101-0.082,0.145-0.129
		c0.008-0.008,0.017-0.014,0.025-0.022c0.008-0.009,0.01-0.021,0.018-0.03c0.117-0.134,0.211-0.288,0.275-0.458
		C84.555,88.776,84.56,88.755,84.567,88.733z M18.354,49.349L37.713,67.03L18.354,84.854V49.349z M39.937,69.061l9.052,8.267
		c0.287,0.262,0.649,0.393,1.012,0.393s0.725-0.131,1.012-0.393l8.937-8.163l19.324,17.609H20.698L39.937,69.061z M62.174,67.134
		l19.473-17.785v35.53L62.174,67.134z M81.154,45.736l-3.63,3.316v-8.408L81.154,45.736z M74.523,13.223v38.568L59.039,65.934
		c-0.075,0.056-0.16,0.094-0.226,0.165c-0.025,0.027-0.032,0.062-0.054,0.091L50,74.19L25.478,51.792V13.223H74.523z M22.478,49.052
		l-3.63-3.316l3.63-5.083V49.052z"/>
</g>
</svg>
