<?xml version="1.0" encoding="iso-8859-1"?>
<!-- Generator: Adobe Illustrator 21.1.0, SVG Export Plug-In . SVG Version: 6.00 Build 0)  -->
<svg version="1.1" id="Layer_1" xmlns="http://www.w3.org/2000/svg" xmlns:xlink="http://www.w3.org/1999/xlink" x="0px" y="0px"
	 viewBox="0 0 100.354 100.352" style="enable-background:new 0 0 100.354 100.352;" xml:space="preserve">
<path stroke="#5E3B76" d="M67.853,16.194c-8.024,0-14.924,4.909-17.852,11.882c-2.93-6.973-9.833-11.882-17.861-11.882
	c-10.673,0-19.357,8.681-19.357,19.352c0,4.118,1.33,8.088,3.88,11.525L48.83,87.243c0.285,0.355,0.715,0.562,1.171,0.562
	c0,0,0.001,0,0.001,0c0.456,0,0.887-0.208,1.171-0.564l32.863-41.184c0.031-0.04,0.062-0.082,0.09-0.125
	c2.023-3.152,3.093-6.744,3.093-10.386C87.22,24.875,78.531,16.194,67.853,16.194z M81.643,44.248L49.999,83.904L19.038,45.24
	c-2.13-2.873-3.256-6.225-3.256-9.694c0-9.017,7.338-16.352,16.357-16.352c9.022,0,16.362,7.335,16.362,16.352
	c0,0.829,0.671,1.5,1.5,1.5s1.5-0.671,1.5-1.5c0-9.017,7.335-16.352,16.352-16.352c9.024,0,16.367,7.335,16.367,16.352
	C84.22,38.589,83.329,41.596,81.643,44.248z"/>
</svg>
