<?xml version="1.0" encoding="iso-8859-1"?>
<!-- Generator: Adobe Illustrator 21.1.0, SVG Export Plug-In . SVG Version: 6.00 Build 0)  -->
<svg  version="1.1" id="Layer_1" xmlns="http://www.w3.org/2000/svg" xmlns:xlink="http://www.w3.org/1999/xlink" x="0px" y="0px"
	 viewBox="0 0 100.353 100.353" style="enable-background:new 0 0 100.353 100.353; color: #9B51E0" xml:space="preserve">
<path stroke="#5E3B76" d="M84.311,17.504H61.459c0.591-1.056,0.918-2.224,0.918-3.413c0-3.881-3.16-7.039-7.044-7.039c0,0-0.001,0-0.002,0
	c-1.88,0-3.648,0.732-4.978,2.061c-0.202,0.202-0.391,0.415-0.565,0.636c-1.29-1.642-3.293-2.698-5.539-2.698
	c-3.883,0-7.042,3.158-7.042,7.039c0,1.195,0.318,2.349,0.92,3.414H15.694c-3.394,0-6.154,3.11-6.154,6.934v67.011
	c0,0.828,0.671,1.5,1.5,1.5h10.28c0.829,0,1.5-0.672,1.5-1.5V66.942c9.26-0.287,22.754-4.183,27.077-23.329
	c3.362,14.015,12.75,22.12,27.283,23.254v24.583c0,0.828,0.672,1.5,1.5,1.5h10.28c0.828,0,1.5-0.672,1.5-1.5V24.438
	C90.46,20.615,87.701,17.504,84.311,17.504z M44.249,10.051c2.228,0,4.041,1.812,4.041,4.039c0,0.829,0.671,1.5,1.5,1.5
	s1.5-0.671,1.5-1.5c0-1.079,0.42-2.093,1.184-2.855s1.778-1.183,2.858-1.183h0.001c2.229,0,4.044,1.812,4.044,4.039
	c0,0.741-0.204,1.448-0.607,2.104l-1.167,1.462c-0.407,0.196-0.712,0.567-0.813,1.019l-7,8.768l-8.774-10.96
	c-0.528-0.71-0.807-1.538-0.807-2.393C40.207,11.863,42.02,10.051,44.249,10.051z M19.82,89.949h-7.28V24.438
	c0-2.169,1.415-3.934,3.154-3.934h24.697l6.43,8.032l-3.555-0.005l-1.597,0.096l-17.061-0.049c-2.685,0-4.789,2.719-4.789,6.189
	V89.949z M22.82,63.942V34.767c0-1.825,0.944-3.189,1.784-3.189l17.147,0.047l1.599-0.096l4.912,0.008
	C47.706,57.4,34.46,63.57,22.82,63.942z M51.51,31.542l23.886,0.036c0.842,0,1.783,1.364,1.783,3.189v29.087
	C56.372,62.123,51.663,45.597,51.51,31.542z M87.46,89.949h-7.28V34.767c0-3.47-2.101-6.189-4.781-6.189l-22.651-0.033l6.42-8.041
	h25.143c1.736,0,3.149,1.765,3.149,3.934V89.949z" />
</svg>
