<?xml version="1.0" encoding="iso-8859-1"?>
<!-- Uploaded to: SVG Repo, www.svgrepo.com, Generator: SVG Repo Mixer Tools -->
<svg version="1.1" id="Layer_1" xmlns="http://www.w3.org/2000/svg" xmlns:xlink="http://www.w3.org/1999/xlink" 
	 viewBox="0 0 512 512" xml:space="preserve">
<g>
	<path style="fill:#B3D8F5;" d="M180.285,128.232h-22.66h-22.66l-14.84,17.27l36.978,36.978c0.145,0.144,0.334,0.217,0.523,0.217
		c0.19,0,0.379-0.072,0.523-0.217l36.978-36.978L180.285,128.232z"/>
	<path style="fill:#B3D8F5;" d="M377.036,128.232h-22.66h-22.66l-14.84,17.27l36.978,36.978c0.144,0.144,0.334,0.217,0.523,0.217
		s0.379-0.072,0.523-0.217l36.978-36.978L377.036,128.232z"/>
</g>
<g>
	<path style="fill:#FED322;" d="M278.766,244.532c-6.648-9.085-14.286-17.399-22.766-24.771
		c-26.338-22.896-60.736-36.759-98.375-36.759c-82.855,0-150.021,67.166-150.021,150.021S74.77,483.045,157.625,483.045
		c37.639,0,72.038-13.863,98.375-36.759c-8.481-7.373-16.119-15.685-22.766-24.771c-20.341,17.396-46.746,27.907-75.609,27.907
		c-64.285,0-116.397-52.113-116.397-116.397S93.34,216.627,157.625,216.627c28.863,0,55.268,10.511,75.609,27.907
		c8.832,7.553,16.519,16.403,22.766,26.259c11.411,18,18.022,39.343,18.022,62.233c0,22.89-6.611,44.233-18.022,62.233
		c6.247,9.856,13.935,18.706,22.766,26.259c18.153-24.809,28.879-55.395,28.879-88.492
		C307.645,299.927,296.919,269.341,278.766,244.532z"/>
	<path style="fill:#FED322;" d="M354.375,183.003c-37.639,0-72.037,13.863-98.375,36.759c8.481,7.373,16.119,15.685,22.766,24.771
		c20.341-17.396,46.745-27.907,75.609-27.907c64.285,0,116.397,52.113,116.397,116.397S418.66,449.42,354.375,449.42
		c-28.864,0-55.268-10.511-75.609-27.907c-8.832-7.553-16.519-16.403-22.766-26.259c-11.411-18-18.022-39.343-18.022-62.233
		c0-22.89,6.611-44.233,18.022-62.233c-6.247-9.856-13.935-18.706-22.766-26.259c-18.153,24.809-28.879,55.395-28.879,88.492
		s10.726,63.683,28.879,88.492c6.648,9.085,14.286,17.398,22.766,24.771c26.338,22.896,60.736,36.759,98.375,36.759
		c82.854,0,150.021-67.166,150.021-150.021S437.23,183.003,354.375,183.003z"/>
</g>
<g>
	<path style="fill:#DDB201;" d="M278.766,244.532C275.083,237.169,256,219.761,256,219.761s11.979-9.299,13.854-10.489
		c0,0,19.263,16.979,21.97,25.777L278.766,244.532z"/>
	<path style="fill:#DDB201;" d="M246.009,290.462l9.991-19.67c-6.536-11.768-22.766-26.259-22.766-26.259
		s-9.645,14.34-12.603,20.489C220.629,265.021,237.617,277.434,246.009,290.462z"/>
	<path style="fill:#DDB201;" d="M233.23,421.566c3.683,7.363,22.766,24.771,22.766,24.771s-11.979,9.299-13.854,10.489
		c0,0-19.263-16.979-21.97-25.777L233.23,421.566z"/>
	<path style="fill:#DDB201;" d="M265.988,375.637l-9.991,19.67c6.536,11.768,22.766,26.259,22.766,26.259s9.645-14.34,12.603-20.489
		C291.367,401.077,274.38,388.664,265.988,375.637z"/>
</g>
<g>
	<path style="fill:#78BAEC;" d="M377.036,128.232h-22.66v54.465c0.19,0,0.379-0.072,0.523-0.217l36.978-36.978L377.036,128.232z"/>
	<path style="fill:#78BAEC;" d="M180.285,128.232h-22.66v54.465c0.19,0,0.379-0.072,0.523-0.217l36.978-36.978L180.285,128.232z"/>
</g>
<path d="M371.769,176.364l30.47-30.47l-21.71-25.265h-52.305l-21.71,25.265l30.47,30.47c-29.557,3.279-57.658,14.863-80.982,33.507
	c-23.324-18.644-51.425-30.228-80.982-33.507l30.47-30.47l-21.71-25.265h-52.305l-21.71,25.265l30.47,30.47
	C61.471,185.049,0,251.988,0,333.024c0,86.914,70.71,157.625,157.625,157.625c35.834,0,70.513-12.2,98.375-34.472
	c27.862,22.272,62.542,34.472,98.375,34.472C441.29,490.649,512,419.938,512,333.024C512,251.988,450.529,185.049,371.769,176.364z
	 M335.207,135.836h38.337l7.969,9.275l-27.138,27.138l-27.138-27.138L335.207,135.836z M138.456,135.836h38.337l7.969,9.275
	l-27.138,27.138l-27.138-27.138L138.456,135.836z M157.625,475.441c-78.529,0-142.417-63.888-142.417-142.417
	s63.888-142.417,142.417-142.417c34.337,0,67.503,12.392,93.387,34.894c8.035,6.984,15.308,14.898,21.618,23.522
	c17.933,24.508,27.412,53.555,27.412,84.001c0,27.573-7.775,54-22.562,76.946c-0.192-0.192-0.376-0.39-0.566-0.583
	c-0.834-0.847-1.659-1.702-2.465-2.574c-0.357-0.386-0.705-0.781-1.055-1.172c-0.661-0.736-1.315-1.479-1.955-2.233
	c-0.368-0.433-0.731-0.869-1.092-1.308c-0.618-0.751-1.225-1.513-1.823-2.28c-0.337-0.432-0.675-0.863-1.005-1.3
	c-0.655-0.867-1.293-1.748-1.921-2.636c-0.195-0.275-0.396-0.545-0.589-0.823c10.887-18.81,16.619-40.153,16.619-62.037
	c0-21.925-5.759-43.301-16.685-62.137l0.061-0.096l-2.58-4.072c-4.983-7.859-10.817-15.117-17.407-21.662
	c-2.197-2.182-4.478-4.285-6.84-6.304l-6.234-5.332l-0.161,0.22c-21.339-15.929-47.37-24.62-74.156-24.62
	c-68.375,0-124.002,55.628-124.002,124.002s55.627,124.001,124.002,124.001c26.853,0,52.947-8.733,74.315-24.737
	c0.095,0.118,0.196,0.231,0.291,0.348c0.539,0.661,1.092,1.311,1.641,1.964c0.423,0.501,0.84,1.007,1.269,1.503
	c0.586,0.677,1.185,1.342,1.782,2.01c0.409,0.457,0.812,0.92,1.226,1.372c0.656,0.716,1.326,1.418,1.995,2.122
	c0.37,0.389,0.734,0.787,1.108,1.172c0.815,0.84,1.646,1.666,2.48,2.488c0.228,0.225,0.449,0.456,0.677,0.68
	C219.606,465.022,189.107,475.441,157.625,475.441z M289.077,246.04c18.767-14.095,41.689-21.81,65.298-21.81
	c59.989,0,108.794,48.805,108.794,108.794s-48.805,108.792-108.794,108.792c-23.608,0-46.531-7.715-65.298-21.81
	c17.142-25.819,26.172-55.735,26.172-86.984C315.249,301.775,306.22,271.858,289.077,246.04z M245.582,333.024
	c0-16.18,3.584-32.012,10.418-46.465c6.834,14.454,10.418,30.285,10.418,46.465c0,16.18-3.584,32.012-10.418,46.465
	C249.166,365.035,245.582,349.204,245.582,333.024z M222.923,246.04c-17.142,25.819-26.172,55.735-26.172,86.984
	c0,31.248,9.029,61.165,26.172,86.984c-18.767,14.095-41.69,21.81-65.298,21.81c-59.989,0-108.794-48.804-108.794-108.793
	S97.636,224.23,157.625,224.23C181.234,224.23,204.156,231.945,222.923,246.04z M354.375,475.441
	c-34.337,0-67.503-12.392-93.387-34.894c-8.034-6.983-15.308-14.898-21.618-23.522c-17.933-24.508-27.412-53.555-27.412-84.001
	c0-27.573,7.775-54.001,22.562-76.946c0.194,0.194,0.38,0.394,0.572,0.589c0.833,0.845,1.656,1.698,2.46,2.569
	c0.355,0.384,0.701,0.778,1.05,1.167c0.664,0.739,1.32,1.485,1.964,2.243c0.364,0.429,0.724,0.862,1.082,1.296
	c0.623,0.756,1.233,1.522,1.835,2.294c0.334,0.428,0.669,0.855,0.997,1.289c0.655,0.867,1.292,1.748,1.921,2.635
	c0.196,0.277,0.398,0.548,0.591,0.827c-10.887,18.81-16.619,40.153-16.619,62.038c0,21.925,5.759,43.3,16.685,62.136l-0.062,0.096
	l2.581,4.072c6.643,10.478,14.8,19.888,24.245,27.966l6.234,5.332l0.161-0.221c21.34,15.929,47.369,24.62,74.156,24.62
	c68.375,0,124.002-55.627,124.002-124.001s-55.626-124.001-124.002-124.001c-26.853,0-52.947,8.733-74.315,24.738
	c-0.095-0.118-0.196-0.231-0.291-0.348c-0.538-0.66-1.089-1.309-1.638-1.96c-0.424-0.503-0.844-1.011-1.274-1.508
	c-0.58-0.67-1.173-1.329-1.764-1.989c-0.416-0.464-0.825-0.935-1.246-1.394c-0.642-0.701-1.298-1.387-1.951-2.075
	c-0.385-0.406-0.763-0.818-1.153-1.221c-0.781-0.805-1.577-1.594-2.373-2.382c-0.262-0.259-0.516-0.525-0.78-0.783
	c24.804-19.075,55.302-29.493,86.786-29.493c78.529,0,142.417,63.888,142.417,142.417S432.904,475.441,354.375,475.441z"/>
<rect x="248.396" y="21.351" width="15.208" height="47.344"/>
<rect x="311.051" y="36.149" transform="matrix(-0.9076 -0.4198 0.4198 -0.9076 582.756 247.8874)" width="15.207" height="47.343"/>
<rect x="169.67" y="52.224" transform="matrix(-0.4198 -0.9076 0.9076 -0.4198 220.2073 260.4222)" width="47.343" height="15.207"/>
</svg>