<?xml version="1.0" encoding="UTF-8" standalone="no"?> <svg width="512" height="512" viewBox="0 0 512 512" fill="none" xmlns="http://www.w3.org/2000/svg">
<path fill-rule="evenodd" clip-rule="evenodd" d="M284.286 476.284C268.665 491.905 243.338 491.905 227.717 476.284L179.717 428.284C168.277 416.844 164.855 399.64 171.046 384.693C177.237 369.746 191.823 360 208.001 360L216.002 360L216.002 64C216.002 41.9086 233.911 24 256.002 24C278.094 24 296.002 41.9086 296.002 64L296.002 360L304.001 360C320.18 360 334.765 369.746 340.956 384.693C347.148 399.64 343.725 416.844 332.286 428.284L284.286 476.284ZM239.031 464.971C248.403 474.343 263.599 474.343 272.972 464.971L320.972 416.971C327.836 410.107 329.889 399.784 326.174 390.816C322.46 381.847 313.708 376 304.001 376L288.002 376C283.584 376 280.002 372.418 280.002 368L280.002 64C280.002 50.7452 269.257 40 256.002 40C242.747 40 232.002 50.7452 232.002 64L232.002 368C232.002 372.418 228.42 376 224.002 376L208.001 376C198.294 376 189.543 381.847 185.828 390.816C182.113 399.784 184.167 410.107 191.031 416.971L239.031 464.971Z" fill="#FFFFFF"/>
</svg>
