<svg xmlns="http://www.w3.org/2000/svg" version="1.1" xmlns:xlink="http://www.w3.org/1999/xlink" width="512" height="512" x="0" y="0" viewBox="0 0 512 512" style="enable-background:new 0 0 512 512" xml:space="preserve"><g><path fill="#f8d700" d="M160 405.1c-85.5 0-155-69.5-155-155s69.5-155 155-155 155 69.5 155 155-69.5 155-155 155zm0-276.9c-67.2 0-121.9 54.7-121.9 121.9S92.8 372 160 372s121.9-54.7 121.9-121.9S227.2 128.2 160 128.2z" opacity="1" data-original="#f8d700"></path><path fill="#f8b700" d="M176 111.1c-85.5 0-155 69.5-155 155 0 38.7 14.2 74.1 37.7 101.3 27.2 23.5 62.6 37.7 101.3 37.7 85.5 0 155-69.5 155-155 0-38.7-14.2-74.1-37.7-101.3-27.2-23.5-62.6-37.7-101.3-37.7zm0 276.9c-37.7 0-71.4-17.2-93.8-44.1-26.9-22.4-44.1-56.1-44.1-93.8 0-67.2 54.7-121.9 121.9-121.9 37.7 0 71.4 17.2 93.8 44.1 26.9 22.4 44.1 56.1 44.1 93.8 0 67.2-54.7 121.9-121.9 121.9z" opacity="1" data-original="#f8b700"></path><path fill="#f8b700" d="M176 111.1c-85.5 0-155 69.5-155 155 0 38.7 14.2 74.1 37.7 101.3 27.2 23.5 62.6 37.7 101.3 37.7 85.5 0 155-69.5 155-155 0-38.7-14.2-74.1-37.7-101.3-27.2-23.5-62.6-37.7-101.3-37.7zm0 276.9c-37.7 0-71.4-17.2-93.8-44.1-26.9-22.4-44.1-56.1-44.1-93.8 0-67.2 54.7-121.9 121.9-121.9 37.7 0 71.4 17.2 93.8 44.1 26.9 22.4 44.1 56.1 44.1 93.8 0 67.2-54.7 121.9-121.9 121.9z" opacity="1" data-original="#f8b700"></path><path fill="#f8d700" d="M352 507.1c-85.5 0-155-69.5-155-155s69.5-155 155-155 155 69.5 155 155-69.5 155-155 155zm0-276.9c-67.2 0-121.9 54.7-121.9 121.9S284.8 474 352 474s121.9-54.7 121.9-121.9S419.2 230.2 352 230.2z" opacity="1" data-original="#f8d700"></path><path fill="#f8b700" d="M366 211.1c-85.5 0-155 69.5-155 155 0 39.2 14.6 75 38.7 102.3 27.3 24.1 63.1 38.7 102.3 38.7 85.5 0 155-69.5 155-155 0-39.2-14.6-75-38.7-102.3-27.3-24.1-63.1-38.7-102.3-38.7zm0 276.9c-37.2 0-70.5-16.7-92.9-43-26.3-22.4-43-55.7-43-92.9 0-67.2 54.7-121.9 121.9-121.9 37.2 0 70.5 16.7 92.9 43 26.3 22.4 43 55.7 43 92.9 0 67.2-54.7 121.9-121.9 121.9z" opacity="1" data-original="#f8b700"></path><path fill="#db332a" d="M385.1 131c-9.2-9.2-24-9.2-33.1 0-9.2-9.2-24-9.2-33.1 0-9.2 9.2-9.2 24 0 33.1l33.1 33.1 33.1-33.1c9.2-9.1 9.2-23.9 0-33.1zM191.3 5l15.8 35-47.5 55L112 40l16-35z" opacity="1" data-original="#db332a"></path><g fill="#b5100b"><path d="M143.8 40 128 5l-16 35zM207.1 40 191.3 5l-15.9 35z" fill="#b5100b" opacity="1" data-original="#b5100b"></path><path d="M175.5 40 159.6 5l-15.9 35zM143.7 40l15.8 55 16-55z" fill="#b5100b" opacity="1" data-original="#b5100b"></path></g><path fill="#f8d700" d="M281.9 250.1v2.3c9.9-7 20.8-12.5 32.5-16.3-1-11.3-3.2-22.2-6.5-32.6-10.8 3.2-21 7.5-30.7 12.9 3 10.7 4.7 22 4.7 33.7z" opacity="1" data-original="#f8d700"></path><path fill="#f8b700" d="M295.9 243.9c5.9-3.1 12.1-5.7 18.5-7.8-1-11.3-3.2-22.2-6.5-32.6-7.8 2.3-15.3 5.2-22.5 8.7 4.8 9.9 8.4 20.5 10.5 31.7z" opacity="1" data-original="#f8b700"></path></g></svg>

